<svg width="70.000000" height="70.000000" viewBox="0 0 70 70" fill="none" xmlns="http://www.w3.org/2000/svg" xmlns:xlink="http://www.w3.org/1999/xlink">
	<desc>
			Created with Pixso.
	</desc>
	<defs/>
	<rect id="Rectangle 9" rx="15.000000" width="70.000000" height="70.000000" fill="#FFCD1D" fill-opacity="0.240000"/>
	<path id="Vector" d="M36.4062 45.9167C35.9032 45.9163 35.4206 45.7178 35.0624 45.3647L28.3853 38.6772C28.214 38.5068 28.1072 38.2822 28.0833 38.0417L27.1666 28.3022C27.1526 28.1497 27.1724 27.9958 27.2246 27.8518C27.2768 27.7078 27.3602 27.5769 27.4687 27.4688C27.5768 27.3604 27.7076 27.2769 27.8516 27.2246C27.9957 27.1726 28.1494 27.1526 28.302 27.1667L38.0416 28.0835C38.282 28.1074 38.5067 28.2141 38.677 28.3855L45.3645 35.0625C45.7188 35.418 45.9178 35.8992 45.9178 36.4011C45.9178 36.9028 45.7188 37.3843 45.3645 37.7397L37.7395 45.3647C37.3853 45.7173 36.906 45.9158 36.4062 45.9167ZM30.1562 37.4688L36.4062 43.7188L43.7499 36.375L37.4999 30.125L29.3645 29.3647L30.1562 37.4688Z" fill="#FFC700" fill-opacity="1.000000" fill-rule="nonzero"/>
	<path id="Vector" d="M35.5 33.9375C35.5 34.8005 34.8004 35.5 33.9375 35.5C33.0746 35.5 32.375 34.8005 32.375 33.9375C32.375 33.0745 33.0746 32.375 33.9375 32.375C34.8004 32.375 35.5 33.0745 35.5 33.9375Z" fill="#FFC700" fill-opacity="1.000000" fill-rule="evenodd"/>
</svg>
