<svg width="70.000000" height="70.000000" viewBox="0 0 70 70" fill="none" xmlns="http://www.w3.org/2000/svg" xmlns:xlink="http://www.w3.org/1999/xlink">
	<desc>
			Created with Pixso.
	</desc>
	<defs/>
	<rect id="Rectangle 9" rx="15.000000" width="70.000000" height="70.000000" fill="#149211" fill-opacity="0.280000"/>
	<path id="Vector" d="M34.5729 46.9583C34.4521 46.958 34.3323 46.937 34.2188 46.8958C33.9997 46.8157 33.814 46.6643 33.6912 46.4658C33.5685 46.2676 33.5158 46.0337 33.5417 45.802L34.3438 38.4165L28.2083 38.4165C28.0191 38.417 27.8334 38.3657 27.6711 38.2683C27.5088 38.1709 27.376 38.0312 27.2872 37.8643C27.1983 37.6973 27.1566 37.509 27.1665 37.3201C27.1765 37.1311 27.2378 36.9485 27.3438 36.7915L35.5625 24.5C35.6925 24.3076 35.883 24.1641 36.1038 24.0925C36.3246 24.0208 36.563 24.0249 36.7812 24.104C36.991 24.1819 37.1701 24.3254 37.2921 24.5129C37.414 24.7004 37.4723 24.9224 37.4583 25.1458L36.6562 32.5833L42.7917 32.5833C42.9809 32.583 43.1666 32.6343 43.3289 32.7317C43.4912 32.8289 43.624 32.9685 43.7128 33.1357C43.8017 33.3027 43.8434 33.491 43.8335 33.6799C43.8235 33.8689 43.7622 34.0515 43.6562 34.2083L35.4375 46.5C35.3419 46.6414 35.2131 46.7571 35.0624 46.8369C34.9116 46.9167 34.7435 46.9585 34.5729 46.9583ZM30.1563 36.3333L35.5 36.3333C35.6454 36.3335 35.789 36.3643 35.9218 36.4236C36.0546 36.4827 36.1734 36.5691 36.2708 36.677C36.3691 36.7864 36.4432 36.9153 36.4881 37.0554C36.5329 37.1953 36.5477 37.3433 36.5312 37.4895L36.0625 41.8125L40.8438 34.6665L35.5 34.6665C35.353 34.6675 35.2075 34.6372 35.073 34.5779C34.9385 34.5186 34.8182 34.4314 34.7198 34.3223C34.6214 34.2129 34.5472 34.0842 34.5022 33.9443C34.4571 33.8044 34.4422 33.6565 34.4583 33.5103L34.9271 29.1875L30.1563 36.3333Z" fill="#149211" fill-opacity="1.000000" fill-rule="nonzero"/>
</svg>
